<?xml version="1.0" standalone="no"?>
<!DOCTYPE svg PUBLIC "-//W3C//DTD SVG 20010904//EN"
 "http://www.w3.org/TR/2001/REC-SVG-20010904/DTD/svg10.dtd">
<svg version="1.0" xmlns="http://www.w3.org/2000/svg"
 width="580.000000pt" height="211.000000pt" viewBox="0 0 580.000000 211.000000"
 preserveAspectRatio="xMidYMid meet">

<g transform="translate(0.000000,211.000000) scale(0.100000,-0.100000)"
fill="#000000" stroke="none">
<path d="M2113 1619 c-60 -29 -88 -89 -78 -165 15 -123 66 -227 152 -312 219
-214 578 -167 737 96 38 64 69 164 64 208 -3 29 -4 29 -73 32 -96 4 -115 -2
-115 -36 0 -43 -44 -127 -91 -171 -53 -52 -83 -61 -113 -32 -28 26 -27 26 -71
-3 -79 -54 -182 -42 -251 28 -72 71 -80 160 -24 249 l28 45 -42 41 c-48 47
-64 49 -123 20z"/>
<path d="M2366 1540 c-64 -20 -101 -79 -93 -154 4 -42 10 -55 45 -88 37 -34
47 -38 92 -38 87 0 131 38 151 130 4 19 11 45 14 57 6 18 2 25 -16 32 -13 5
-33 18 -43 30 -18 20 -75 42 -106 40 -8 0 -28 -5 -44 -9z"/>
<path d="M1445 733 c-11 -2 -30 -6 -42 -8 -60 -13 -123 -105 -123 -180 0 -78
68 -156 149 -171 29 -6 137 8 146 18 1 2 5 38 7 81 l5 77 -31 0 -32 0 4 -64
c4 -59 3 -63 -19 -69 -72 -19 -129 5 -159 68 -25 52 -25 88 0 140 27 55 72 80
131 73 24 -3 52 -9 62 -13 13 -5 17 -2 17 14 0 12 -6 23 -12 26 -26 7 -84 12
-103 8z"/>
<path d="M5319 730 c-91 -17 -150 -111 -134 -216 13 -88 107 -154 197 -140 50
8 88 30 88 51 0 17 -25 20 -35 6 -3 -6 -26 -13 -52 -17 -114 -17 -192 110
-132 216 36 64 97 83 188 59 16 -5 24 11 13 27 -9 14 -88 23 -133 14z"/>
<path d="M357 710 c-5 -19 -1 -20 46 -18 l52 3 0 -158 0 -157 30 0 30 0 -3
161 -4 162 47 -8 c46 -6 64 1 65 28 0 4 -58 7 -129 7 -121 0 -129 -1 -134 -20z"/>
<path d="M678 723 c-16 -4 -18 -21 -18 -174 l0 -169 25 0 c25 0 25 0 25 95 0
93 1 96 26 107 48 22 59 3 62 -106 3 -95 3 -96 27 -96 25 0 25 1 25 84 0 45
-5 98 -11 115 -18 51 -67 61 -111 23 -17 -14 -18 -11 -18 56 0 40 -3 71 -7 71
-5 -1 -16 -3 -25 -6z"/>
<path d="M2598 723 c-16 -4 -18 -21 -18 -174 l0 -169 25 0 c25 0 25 0 25 95 0
93 1 96 26 107 48 22 59 3 62 -106 3 -95 3 -96 27 -96 25 0 25 1 24 88 -1 110
-8 134 -42 150 -25 12 -32 11 -63 -7 l-35 -21 2 67 c2 67 -1 74 -33 66z"/>
<path d="M2985 556 l0 -176 28 0 27 0 -2 66 -3 66 50 15 c28 8 60 25 73 39 31
35 30 94 -2 131 -21 25 -32 28 -97 31 l-74 4 0 -176z m117 127 c38 -44 28
-118 -18 -129 -45 -11 -54 0 -54 69 0 35 3 67 7 70 12 13 50 7 65 -10z"/>
<path d="M4692 668 c5 -35 7 -114 3 -175 l-6 -113 85 0 c77 0 85 2 91 21 9 29
4 31 -48 19 -80 -17 -80 -18 -76 156 l4 154 -31 0 -31 0 9 -62z"/>
<path d="M4945 555 l0 -175 82 0 c73 0 84 2 93 21 7 11 10 23 7 25 -2 2 -28 0
-57 -6 -31 -6 -58 -6 -63 -1 -5 5 -7 77 -5 160 l3 151 -30 0 -30 0 0 -175z"/>
<path d="M3664 705 c-9 -23 3 -45 25 -45 21 0 33 22 25 45 -4 8 -15 15 -25 15
-11 0 -22 -7 -25 -15z"/>
<path d="M2444 638 c-20 -22 -21 -29 -14 -123 4 -55 11 -108 15 -117 9 -22 39
-32 71 -24 28 7 33 36 6 36 -33 0 -42 22 -42 101 l0 77 30 6 c36 7 40 26 6 26
-13 0 -30 9 -37 21 l-14 20 -21 -23z"/>
<path d="M4244 639 c-16 -18 -19 -34 -16 -113 2 -50 8 -103 14 -119 12 -31 47
-44 77 -27 26 13 27 30 3 30 -33 0 -42 22 -42 101 0 72 2 78 22 81 32 5 35 28
4 28 -19 0 -26 5 -26 20 0 26 -12 25 -36 -1z"/>
<path d="M952 605 c-82 -69 -55 -206 45 -231 32 -8 73 3 73 21 0 11 -11 15
-39 15 -33 0 -43 5 -61 30 -33 46 -21 60 49 60 33 0 63 4 66 10 8 13 -12 85
-29 99 -30 25 -71 24 -104 -4z m82 -21 c26 -25 20 -52 -14 -59 -62 -14 -89 16
-50 55 24 24 43 25 64 4z"/>
<path d="M1753 619 c-13 -5 -23 -13 -23 -19 0 -12 57 -14 64 -1 10 16 -18 29
-41 20z"/>
<path d="M1903 623 c-12 -2 -36 -20 -53 -39 -26 -30 -30 -43 -30 -90 0 -48 4
-60 29 -84 38 -39 75 -47 117 -26 81 38 100 169 32 223 -16 13 -66 22 -95 16z
m46 -38 c46 -23 63 -92 36 -144 -18 -36 -38 -44 -71 -29 -53 24 -71 113 -33
162 24 30 30 31 68 11z"/>
<path d="M3325 618 c-11 -6 -23 -16 -28 -22 -5 -7 -11 -5 -18 7 -5 9 -18 17
-28 17 -17 0 -18 -11 -18 -120 0 -119 0 -120 24 -120 22 0 23 2 23 94 0 103 8
120 57 114 22 -2 28 1 28 16 0 24 -14 29 -40 14z"/>
<path d="M3475 623 c-102 -26 -114 -202 -16 -242 41 -18 77 -7 118 34 29 29
33 39 33 89 0 47 -4 60 -27 86 -28 30 -70 43 -108 33z m46 -33 c18 0 49 -65
49 -102 0 -25 -8 -46 -24 -65 -24 -27 -26 -27 -53 -13 -38 21 -67 81 -58 121
9 38 41 73 62 65 8 -3 19 -6 24 -6z"/>
<path d="M3833 620 c-58 -24 -82 -134 -44 -196 22 -36 78 -59 117 -50 38 10
30 36 -11 36 -40 0 -77 33 -73 65 3 17 12 20 67 23 l63 3 -5 41 c-9 64 -61
100 -114 78z m59 -32 c9 -7 18 -22 20 -33 4 -27 -42 -43 -77 -27 -23 11 -24
14 -14 34 20 39 43 47 71 26z"/>
<path d="M4075 620 c-11 -4 -33 -22 -50 -39 -25 -27 -29 -39 -29 -87 0 -51 3
-59 32 -85 39 -35 75 -45 108 -30 36 16 29 31 -15 31 -52 0 -81 34 -81 97 0
34 6 50 25 69 22 22 31 25 65 19 32 -5 40 -4 40 8 0 26 -52 35 -95 17z"/>
<path d="M1660 500 l0 -120 25 0 26 0 -7 74 c-4 43 -2 86 4 103 11 33 -4 63
-32 63 -14 0 -16 -15 -16 -120z"/>
<path d="M2075 603 c5 -10 20 -63 35 -118 22 -82 30 -100 46 -100 11 0 21 10
26 25 4 14 13 45 20 68 7 24 17 45 23 45 5 1 17 -26 26 -60 21 -75 26 -85 46
-81 11 2 26 41 48 121 29 107 30 117 14 117 -13 0 -20 -10 -24 -37 -9 -57 -25
-112 -34 -117 -4 -3 -16 25 -25 62 -10 37 -19 73 -22 80 -2 6 -12 12 -22 12
-15 0 -23 -14 -36 -67 -27 -103 -26 -101 -37 -80 -6 10 -16 46 -23 80 -12 57
-15 62 -41 65 -24 3 -27 1 -20 -15z"/>
<path d="M3665 488 c0 -73 -4 -145 -9 -160 -6 -23 -5 -28 8 -28 35 0 45 40 47
180 l1 135 -23 3 -24 3 0 -133z"/>
<path d="M4387 368 c-18 -76 -15 -95 10 -63 24 31 63 118 57 127 -3 4 -15 8
-28 8 -19 0 -24 -9 -39 -72z"/>
</g>
</svg>
